# Blender v2.79 (sub 0) OBJ File: 'shelf.blend'
# www.blender.org
mtllib shelf.mtl
o Shelf_Cube.005
v -0.432122 -2.071126 -3.063197
v -0.432122 -2.071126 -2.936803
v -0.432122 2.071333 -3.063197
v -0.432122 2.071333 -2.936803
v 0.536574 -2.071126 -3.063197
v 0.536574 -2.071126 -2.936803
v 0.536574 2.071333 -3.063197
v 0.536574 2.071333 -2.936803
v -0.536574 -2.004778 2.992422
v -0.536574 2.004778 2.992422
v -0.536574 -2.004778 -2.992422
v -0.536574 2.004778 -2.992422
v -0.429060 -2.074721 3.062365
v -0.429060 2.074721 3.062365
v -0.429060 -2.074721 -3.062365
v -0.429060 2.074721 -3.062365
v 0.432390 -1.948344 0.048530
v 0.519114 -1.948344 0.048530
v 0.432390 -1.948344 2.951470
v 0.519114 -1.948344 2.951470
v 0.432390 -1.193164 0.048530
v 0.519114 -1.193164 0.048530
v 0.432391 -1.193164 2.951470
v 0.519114 -1.193164 2.951470
v 0.432390 -0.063007 0.048530
v 0.514682 -0.063007 0.048530
v 0.432390 -0.063007 2.951470
v 0.514682 -0.063007 2.951470
v 0.432390 0.692172 0.048530
v 0.514682 0.692172 0.048530
v 0.432390 0.692172 2.951470
v 0.514682 0.692172 2.951470
v -0.434110 0.063139 -2.944500
v -0.434110 -0.062932 -2.944500
v -0.434110 0.063139 2.944500
v -0.434110 -0.062932 2.944500
v 0.436665 0.063139 -2.944500
v 0.436665 -0.062932 -2.944500
v 0.436665 0.063139 2.944500
v 0.436665 -0.062932 2.944500
v -0.432564 -1.945800 -0.063197
v -0.432564 -1.945800 0.063197
v -0.432564 1.946007 -0.063197
v -0.432564 1.946007 0.063197
v 0.528623 -1.945800 -0.063197
v 0.528623 -1.945800 0.063197
v 0.528623 1.946007 -0.063197
v 0.528623 1.946007 0.063197
v -0.432122 -2.071126 2.936803
v -0.432122 -2.071126 3.063197
v -0.432122 2.071333 2.936803
v -0.432122 2.071333 3.063197
v 0.536574 -2.071126 2.936803
v 0.536574 -2.071126 3.063197
v 0.536574 2.071333 2.936803
v 0.536574 2.071333 3.063197
v -0.445634 -2.069897 2.937725
v -0.445634 -1.943503 2.937725
v -0.445634 -2.069897 -2.937725
v -0.445634 -1.943503 -2.937725
v 0.520667 -2.069897 2.937725
v 0.520667 -1.943503 2.937725
v 0.520667 -2.069897 -2.937725
v 0.520667 -1.943503 -2.937725
v -0.430991 1.944025 2.937725
v -0.430991 2.070419 2.937725
v -0.430991 1.944025 -2.937725
v -0.430991 2.070419 -2.937725
v 0.535444 1.944025 2.937725
v 0.535444 2.070419 2.937725
v 0.535444 1.944025 -2.937725
v 0.535444 2.070419 -2.937725
v -0.536574 -2.074721 -3.062365
v -0.536574 -2.074721 3.062365
v -0.536574 2.074721 3.062365
v -0.536574 2.074721 -3.062365
v -0.485474 -2.004778 -2.992422
v -0.485474 -2.004778 2.992422
v -0.485474 2.004778 2.992422
v -0.485474 2.004778 -2.992422
vt 0.945325 0.284399
vt 0.936968 0.284399
vt 0.936968 0.004060
vt 0.945325 0.004060
vt 0.525556 0.715128
vt 0.533913 0.715128
vt 0.533913 0.780684
vt 0.525556 0.780684
vt 0.961617 0.284399
vt 0.953260 0.284399
vt 0.953260 0.004060
vt 0.961617 0.004060
vt 0.517621 0.780684
vt 0.509264 0.780684
vt 0.509264 0.715128
vt 0.517621 0.715128
vt 0.492972 0.426669
vt 0.557023 0.426669
vt 0.557023 0.707008
vt 0.492972 0.707008
vt 0.349002 0.426669
vt 0.413053 0.426669
vt 0.413053 0.707008
vt 0.349002 0.707008
vt 0.442509 0.715128
vt 0.442509 0.986473
vt 0.439130 0.986473
vt 0.439130 0.715128
vt 0.424087 0.995940
vt 0.424087 0.715128
vt 0.431195 0.715128
vt 0.431195 0.995940
vt 0.278331 0.418548
vt 0.003967 0.418548
vt 0.003967 0.004061
vt 0.278331 0.004060
vt 0.409043 0.995940
vt 0.409043 0.715128
vt 0.416152 0.715128
vt 0.416152 0.995940
vt 0.935720 0.409799
vt 0.942829 0.409799
vt 0.942829 0.824287
vt 0.935720 0.824287
vt 0.927785 0.824287
vt 0.920676 0.824287
vt 0.920676 0.409799
vt 0.927785 0.409799
vt 0.862904 0.476720
vt 0.868638 0.476720
vt 0.868638 0.673175
vt 0.862904 0.673175
vt 0.784063 0.349081
vt 0.789797 0.349081
vt 0.789797 0.400187
vt 0.784063 0.400187
vt 0.854970 0.673175
vt 0.849235 0.673175
vt 0.849235 0.476720
vt 0.854970 0.476720
vt 0.797732 0.349081
vt 0.803466 0.349081
vt 0.803466 0.400187
vt 0.797732 0.400187
vt 0.827680 0.877751
vt 0.777747 0.877751
vt 0.777747 0.681296
vt 0.827680 0.681296
vt 0.835614 0.681296
vt 0.885547 0.681296
vt 0.885547 0.877751
vt 0.835614 0.877751
vt 0.461757 0.715128
vt 0.467198 0.715128
vt 0.467198 0.911583
vt 0.461757 0.911583
vt 0.816841 0.400187
vt 0.811400 0.400187
vt 0.811400 0.349081
vt 0.816841 0.349081
vt 0.480573 0.911583
vt 0.475132 0.911583
vt 0.475132 0.715128
vt 0.480573 0.715128
vt 0.824776 0.349081
vt 0.830217 0.349081
vt 0.830217 0.400187
vt 0.824776 0.400187
vt 0.384817 0.911583
vt 0.334884 0.911583
vt 0.334884 0.715128
vt 0.384817 0.715128
vt 0.277016 0.715128
vt 0.326949 0.715128
vt 0.326949 0.911583
vt 0.277016 0.911583
vt 0.871822 0.004060
vt 0.880158 0.004060
vt 0.880158 0.402595
vt 0.871822 0.402595
vt 0.832938 0.275557
vt 0.841274 0.275557
vt 0.841274 0.334486
vt 0.832938 0.334486
vt 0.855552 0.004060
vt 0.863887 0.004060
vt 0.863888 0.402595
vt 0.855552 0.402595
vt 0.509286 0.788805
vt 0.517621 0.788805
vt 0.517621 0.847735
vt 0.509286 0.847735
vt 0.640391 0.409799
vt 0.697967 0.409799
vt 0.697967 0.808334
vt 0.640391 0.808334
vt 0.769812 0.808334
vt 0.712236 0.808334
vt 0.712236 0.409799
vt 0.769812 0.409799
vt 0.896450 0.673175
vt 0.888093 0.673175
vt 0.888093 0.409799
vt 0.896450 0.409799
vt 0.550205 0.853853
vt 0.541848 0.853853
vt 0.541848 0.788805
vt 0.550205 0.788805
vt 0.401109 0.978504
vt 0.392751 0.978504
vt 0.392751 0.715128
vt 0.401109 0.715128
vt 0.525556 0.788805
vt 0.533913 0.788805
vt 0.533913 0.853853
vt 0.525556 0.853853
vt 0.841301 0.673175
vt 0.777747 0.673175
vt 0.777747 0.409799
vt 0.841301 0.409799
vt 0.784063 0.004060
vt 0.847617 0.004060
vt 0.847617 0.267436
vt 0.784063 0.267436
vt 0.959120 0.690138
vt 0.950763 0.690138
vt 0.950763 0.409799
vt 0.959120 0.409799
vt 0.492972 0.715128
vt 0.501330 0.715128
vt 0.501330 0.780684
vt 0.492972 0.780684
vt 0.950763 0.698258
vt 0.959120 0.698258
vt 0.959120 0.978597
vt 0.950763 0.978597
vt 0.550205 0.780684
vt 0.541848 0.780684
vt 0.541848 0.715128
vt 0.550205 0.715128
vt 0.420987 0.426669
vt 0.485038 0.426669
vt 0.485038 0.707008
vt 0.420987 0.707008
vt 0.277016 0.426669
vt 0.341067 0.426669
vt 0.341067 0.707008
vt 0.277016 0.707008
vt 0.929034 0.401678
vt 0.920676 0.401678
vt 0.920676 0.004060
vt 0.929033 0.004060
vt 0.825004 0.340951
vt 0.816646 0.340951
vt 0.816646 0.275557
vt 0.825004 0.275557
vt 0.904384 0.409799
vt 0.912742 0.409799
vt 0.912742 0.807417
vt 0.904384 0.807417
vt 0.501330 0.854199
vt 0.492972 0.854199
vt 0.492972 0.788805
vt 0.501330 0.788805
vt 0.568564 0.409799
vt 0.632457 0.409799
vt 0.632457 0.807417
vt 0.568564 0.807417
vt 0.776128 0.401678
vt 0.712236 0.401678
vt 0.712236 0.004060
vt 0.776128 0.004060
vt 0.912742 0.401678
vt 0.904384 0.401678
vt 0.904384 0.004060
vt 0.912742 0.004060
vt 0.800355 0.275557
vt 0.808712 0.275557
vt 0.808712 0.340960
vt 0.800355 0.340960
vt 0.896450 0.401678
vt 0.888093 0.401678
vt 0.888093 0.004060
vt 0.896450 0.004060
vt 0.784063 0.275557
vt 0.792420 0.275557
vt 0.792420 0.340960
vt 0.784063 0.340960
vt 0.568564 0.004060
vt 0.632465 0.004060
vt 0.632465 0.401678
vt 0.568564 0.401678
vt 0.704301 0.401678
vt 0.640400 0.401678
vt 0.640400 0.004060
vt 0.704301 0.004060
vt 0.556005 0.413815
vt 0.556005 0.008794
vt 0.560630 0.004060
vt 0.560630 0.418548
vt 0.290890 0.413815
vt 0.286266 0.418548
vt 0.290890 0.008794
vt 0.286266 0.004060
vt 0.269082 0.831690
vt 0.003967 0.831690
vt 0.003967 0.426669
vt 0.269082 0.426669
vt 0.450443 0.986473
vt 0.450443 0.715128
vt 0.453822 0.715128
vt 0.453822 0.986473
vt 0.978368 0.814820
vt 0.978368 0.409799
vt 0.981747 0.409799
vt 0.981747 0.814820
vt 0.967055 0.814820
vt 0.967055 0.409799
vt 0.970434 0.409799
vt 0.970434 0.814820
vn -1.0000 0.0000 0.0000
vn 0.0000 1.0000 0.0000
vn 1.0000 0.0000 0.0000
vn 0.0000 -1.0000 0.0000
vn 0.0000 0.0000 -1.0000
vn 0.0000 0.0000 1.0000
usemtl None
s off
f 1/1/1 2/2/1 4/3/1 3/4/1
f 3/5/2 4/6/2 8/7/2 7/8/2
f 7/9/3 8/10/3 6/11/3 5/12/3
f 5/13/4 6/14/4 2/15/4 1/16/4
f 3/17/5 7/18/5 5/19/5 1/20/5
f 8/21/6 4/22/6 2/23/6 6/24/6
f 12/25/6 11/26/6 77/27/6 80/28/6
f 73/29/5 76/30/5 16/31/5 15/32/5
f 15/33/3 16/34/3 14/35/3 13/36/3
f 13/37/6 14/38/6 75/39/6 74/40/6
f 73/41/4 15/42/4 13/43/4 74/44/4
f 16/45/2 76/46/2 75/47/2 14/48/2
f 17/49/4 18/50/4 20/51/4 19/52/4
f 19/53/6 20/54/6 24/55/6 23/56/6
f 23/57/2 24/58/2 22/59/2 21/60/2
f 21/61/5 22/62/5 18/63/5 17/64/5
f 19/65/1 23/66/1 21/67/1 17/68/1
f 24/69/3 20/70/3 18/71/3 22/72/3
f 25/73/4 26/74/4 28/75/4 27/76/4
f 27/77/6 28/78/6 32/79/6 31/80/6
f 31/81/2 32/82/2 30/83/2 29/84/2
f 29/85/5 30/86/5 26/87/5 25/88/5
f 27/89/1 31/90/1 29/91/1 25/92/1
f 32/93/3 28/94/3 26/95/3 30/96/3
f 33/97/1 34/98/1 36/99/1 35/100/1
f 35/101/6 36/102/6 40/103/6 39/104/6
f 39/105/3 40/106/3 38/107/3 37/108/3
f 37/109/5 38/110/5 34/111/5 33/112/5
f 35/113/2 39/114/2 37/115/2 33/116/2
f 40/117/4 36/118/4 34/119/4 38/120/4
f 41/121/1 42/122/1 44/123/1 43/124/1
f 43/125/2 44/126/2 48/127/2 47/128/2
f 47/129/3 48/130/3 46/131/3 45/132/3
f 45/133/4 46/134/4 42/135/4 41/136/4
f 43/137/5 47/138/5 45/139/5 41/140/5
f 48/141/6 44/142/6 42/143/6 46/144/6
f 49/145/1 50/146/1 52/147/1 51/148/1
f 51/149/2 52/150/2 56/151/2 55/152/2
f 55/153/3 56/154/3 54/155/3 53/156/3
f 53/157/4 54/158/4 50/159/4 49/160/4
f 51/161/5 55/162/5 53/163/5 49/164/5
f 56/165/6 52/166/6 50/167/6 54/168/6
f 57/169/1 58/170/1 60/171/1 59/172/1
f 59/173/5 60/174/5 64/175/5 63/176/5
f 63/177/3 64/178/3 62/179/3 61/180/3
f 61/181/6 62/182/6 58/183/6 57/184/6
f 59/185/4 63/186/4 61/187/4 57/188/4
f 64/189/2 60/190/2 58/191/2 62/192/2
f 65/193/1 66/194/1 68/195/1 67/196/1
f 67/197/5 68/198/5 72/199/5 71/200/5
f 71/201/3 72/202/3 70/203/3 69/204/3
f 69/205/6 70/206/6 66/207/6 65/208/6
f 67/209/4 71/210/4 69/211/4 65/212/4
f 72/213/2 68/214/2 66/215/2 70/216/2
f 9/217/1 11/218/1 73/219/1 74/220/1
f 10/221/1 9/217/1 74/220/1 75/222/1
f 12/223/1 10/221/1 75/222/1 76/224/1
f 11/218/1 12/223/1 76/224/1 73/219/1
f 78/225/1 79/226/1 80/227/1 77/228/1
f 9/229/5 10/230/5 79/231/5 78/232/5
f 10/233/4 12/234/4 80/235/4 79/236/4
f 11/237/2 9/238/2 78/239/2 77/240/2
